<svg width="24" height="19" viewBox="0 0 24 19" fill="none" xmlns="http://www.w3.org/2000/svg">
<g clip-path="url(#clip0_108_30)">
<path d="M0.682618 3.85711C1.88721 6.7145 4.42307 9.95998 7.9955 12.9069C11.5679 15.8539 15.5023 17.9457 18.9661 18.9394C19.4366 19.0737 19.9562 18.9778 20.3103 18.6878L22.7066 16.7111L23.2649 16.2505C23.769 15.8347 23.769 15.1587 23.2649 14.7429L19.5555 11.6851C19.0514 11.2692 18.232 11.2692 17.7279 11.6851L16.7224 12.5145C16.2002 12.9453 15.3679 12.9879 14.7837 12.6126C13.6282 11.8706 12.483 11.0368 11.3741 10.122C10.2651 9.20723 9.25441 8.26259 8.35484 7.30941C7.89986 6.8275 7.95156 6.143 8.47375 5.71013L9.4793 4.88063C9.98337 4.46482 9.98337 3.78886 9.4793 3.37304L5.76987 0.313081C5.2658 -0.102733 4.44636 -0.102733 3.94229 0.313081L3.38394 0.773675L0.987671 2.75039C0.636089 3.04041 0.519765 3.46902 0.682618 3.85711Z" fill="#4F4F4F"/>
</g>
<defs>
<clipPath id="clip0_108_30">
<rect width="23.0327" height="19" fill="white" transform="translate(0.610241)"/>
</clipPath>
</defs>
</svg>
