<svg width="15" height="28" viewBox="0 0 15 28" fill="none" xmlns="http://www.w3.org/2000/svg">
<g clip-path="url(#clip0_113_23)">
<path d="M9.77984 5.09929H13.6144V0.789657H9.75461C8.22415 0.789657 6.82823 1.41132 5.82754 2.41942C4.81844 3.42752 4.19616 4.81366 4.19616 6.34261V8.89647C4.19616 9.11489 4.01957 9.29131 3.80093 9.29131H0.790459V13.6009H3.80093C4.01957 13.6009 4.19616 13.7774 4.19616 13.9958V27.2019H8.51006V13.9958C8.51006 13.7774 8.68665 13.6009 8.90529 13.6009H12.824L13.5387 9.29131H8.89688C8.67824 9.29131 8.50165 9.11489 8.50165 8.89647V6.34261C8.50165 6.00658 8.64461 5.68735 8.87165 5.46052C9.0987 5.2337 9.40984 5.09089 9.75461 5.09089H9.77143L9.77984 5.09929ZM14.0181 5.88897H9.7462C9.62848 5.88897 9.51916 5.94777 9.44347 6.02338C9.35938 6.10739 9.30893 6.2166 9.30893 6.34261V8.49323H14.0181C14.0433 8.49323 14.0601 8.49323 14.0853 8.50163C14.304 8.53523 14.4469 8.74525 14.4133 8.95527L13.564 14.0294C13.5471 14.231 13.3705 14.3822 13.1687 14.3822H9.30893V27.5883C9.30893 27.8068 9.13234 27.9832 8.9137 27.9832H3.80934C3.59071 27.9832 3.41411 27.8068 3.41411 27.5883V14.3822H0.403638C0.185 14.3822 0.00840759 14.2058 0.00840759 13.9874V8.88807C0.00840759 8.66965 0.185 8.49323 0.403638 8.49323H3.41411V6.34261C3.41411 4.59524 4.12889 3.00748 5.28095 1.85656C6.433 0.705649 8.02233 -0.00842285 9.77143 -0.00842285H14.0265C14.2451 -0.00842285 14.4217 0.167995 14.4217 0.386417V5.48573C14.4217 5.70415 14.2451 5.88057 14.0265 5.88057L14.0181 5.88897Z" fill="#EFEFF3"/>
</g>
<defs>
<clipPath id="clip0_113_23">
<rect width="14.4133" height="28" fill="white"/>
</clipPath>
</defs>
</svg>
