<svg width="28" height="28" viewBox="0 0 28 28" fill="none" xmlns="http://www.w3.org/2000/svg">
<g clip-path="url(#clip0_113_21)">
<path fill-rule="evenodd" clip-rule="evenodd" d="M8.08128 0.120361H19.9192C24.3647 0.120361 28 3.71066 28 8.09673V19.9027C28 24.2898 24.3647 27.879 19.9192 27.879H8.08128C3.6358 27.879 0 24.2898 0 19.9027V8.09673C0 3.71066 3.63576 0.120361 8.08128 0.120361ZM13.9246 6.50519C18.2445 6.50519 21.75 10.0107 21.75 14.3307C21.75 18.6511 18.2445 22.1561 13.9246 22.1561C9.60361 22.1561 6.09857 18.6511 6.09857 14.3307C6.09857 10.0107 9.60361 6.50519 13.9246 6.50519ZM13.9246 9.14831C16.7853 9.14831 19.1069 11.4695 19.1069 14.3307C19.1069 17.1918 16.7852 19.5136 13.9246 19.5136C11.0629 19.5136 8.74169 17.1919 8.74169 14.3307C8.74169 11.4695 11.0629 9.14831 13.9246 9.14831ZM21.4953 5.42059C22.197 5.42059 22.766 5.98951 22.766 6.69074C22.766 7.39249 22.197 7.96141 21.4953 7.96141C20.7941 7.96141 20.2251 7.39249 20.2251 6.69074C20.2251 5.98951 20.7941 5.42059 21.4953 5.42059ZM9.04859 2.38784H18.9529C22.6719 2.38784 25.7135 5.41437 25.7135 9.11274V19.0666C25.7135 22.7649 22.6719 25.791 18.9529 25.791H9.04859C5.32963 25.791 2.2876 22.7649 2.2876 19.0666V9.11265C2.2876 5.41437 5.32963 2.38784 9.04859 2.38784Z" fill="#EFEFF3"/>
</g>
<defs>
<clipPath id="clip0_113_21">
<rect width="28" height="28" fill="white"/>
</clipPath>
</defs>
</svg>
