<svg width="27" height="24" viewBox="0 0 27 24" fill="none" xmlns="http://www.w3.org/2000/svg">
<g clip-path="url(#clip0_108_10)">
<path d="M26.6553 22.281L19.1209 15.3901C20.6062 13.7621 21.4996 11.6815 21.4996 9.40915C21.4996 4.22501 16.8444 0.00982666 11.1182 0.00982666C5.392 0.00982666 0.726013 4.22993 0.726013 9.41407C0.726013 14.5982 5.38124 18.8134 11.1074 18.8134C13.54 18.8134 15.7788 18.051 17.5548 16.7771L25.1162 23.6877C25.5575 24.091 26.214 24.091 26.6553 23.6877C27.0967 23.2843 27.0967 22.6843 26.6553 22.281ZM2.93254 9.41407C2.93254 5.34152 6.6029 2.03135 11.1074 2.03135C15.612 2.03135 19.2823 5.34152 19.2823 9.41407C19.2823 13.4866 15.612 16.7968 11.1074 16.7968C6.6029 16.7968 2.93254 13.4817 2.93254 9.41407Z" fill="#4F4F4F"/>
</g>
<defs>
<clipPath id="clip0_108_10">
<rect width="26.2603" height="24" fill="white" transform="translate(0.726013)"/>
</clipPath>
</defs>
</svg>
