<svg width="32" height="23" viewBox="0 0 32 23" fill="none" xmlns="http://www.w3.org/2000/svg">
<g clip-path="url(#clip0_108_33)">
<path d="M1.01546 1.69023C0.468674 1.69023 0 1.30512 0 0.834419C0 0.385116 0.468674 0 1.01546 0H3.67128C3.69731 0 3.74939 0 3.77543 0C4.71277 0.0213953 5.54597 0.171163 6.24898 0.534884C7.03011 0.941395 7.60293 1.56186 7.91538 2.48186C7.91538 2.50326 7.91538 2.52465 7.94142 2.54605L8.20179 3.40186H30.9845C31.5574 3.40186 32 3.78698 32 4.23628C32 4.32186 31.974 4.40744 31.9479 4.49302L29.2921 13.2865C29.188 13.6716 28.7714 13.9284 28.3027 13.9284H11.6387C12.0033 15.0409 12.3678 15.64 12.8625 15.9181C13.4614 16.2391 14.5028 16.2605 16.2474 16.2391H16.2734H28.0423C28.6151 16.2391 29.0578 16.6242 29.0578 17.0735C29.0578 17.5442 28.5891 17.9079 28.0423 17.9079H16.2734C14.1123 17.9293 12.7844 17.8865 11.7168 17.3088C10.6233 16.7098 10.0504 15.6828 9.47762 13.8214L5.98861 2.97395C5.98861 2.95256 5.98861 2.95256 5.96257 2.93116C5.80635 2.46047 5.54597 2.13953 5.18145 1.96837C4.81692 1.77581 4.32221 1.69023 3.74939 1.69023C3.72335 1.69023 3.69731 1.69023 3.67128 1.69023H1.01546ZM24.9959 18.8921C26.3759 18.8921 27.4955 19.8121 27.4955 20.946C27.4955 22.08 26.3759 23 24.9959 23C23.6159 23 22.4963 22.08 22.4963 20.946C22.4963 19.8121 23.6159 18.8921 24.9959 18.8921ZM14.0342 18.8921C15.4142 18.8921 16.5338 19.8121 16.5338 20.946C16.5338 22.08 15.4142 23 14.0342 23C12.6542 23 11.5346 22.08 11.5346 20.946C11.5346 19.8121 12.6542 18.8921 14.0342 18.8921ZM8.77461 5.0707L11.0919 12.2381H27.5216L29.6827 5.0707H8.77461Z" fill="#4F4F4F"/>
</g>
<defs>
<clipPath id="clip0_108_33">
<rect width="32" height="23" fill="white"/>
</clipPath>
</defs>
</svg>
